<svg xmlns="http://www.w3.org/2000/svg" fill="none" viewBox="0 0 24 24" id="Twitter--Streamline-Svg-Logos" height="24" width="24"><desc>Twitter Streamline Icon: https://streamlinehq.com</desc><path fill="#55acee" d="M23.75 4.7117c-0.86465 0.38345 -1.79385 0.642625 -2.769125 0.759175 0.995475 -0.5967 1.7599 -1.54155 2.119875 -2.66735 -0.931525 0.55245 -1.96335 0.9537 -3.06155 1.169975 -0.879525 -0.937025 -2.132525 -1.5225725 -3.5192 -1.5225725 -2.6627 0 -4.82145 2.1586475 -4.82145 4.8211975 0 0.377875 0.042725 0.74585 0.1249 1.098725 -4.007025 -0.201075 -7.559575 -2.1205 -9.9375025 -5.0374 -0.4150025 0.712075 -0.6527625 1.540275 -0.6527625 2.42385 0 1.67265 0.85124 3.148375 2.144915 4.012925 -0.7904 -0.025 -1.533755 -0.241875 -2.1838525 -0.602975 -0.000345 0.0201 -0.000345 0.0403 -0.000345 0.0606 0 2.335975 1.6618975 4.28465 3.8674975 4.7275 -0.4046 0.1102 -0.830525 0.169075 -1.270275 0.169075 -0.31065 0 -0.612725 -0.030175 -0.907025 -0.086475 0.613475 1.915475 2.394 3.309375 4.50375 3.348325 -1.65005 1.29305 -3.728925 2.06385 -5.987735 2.06385 -0.38913 0 -0.7729325 -0.0228 -1.150115 -0.067325 2.133645 1.36795 4.66795 2.16605 7.39065 2.16605 8.8681 0 13.7175 -7.34655 13.7175 -13.71765 0 -0.20905 -0.00465 -0.416975 -0.013925 -0.6237 0.941925 -0.679775 1.759375 -1.52895 2.405775 -2.4958Z" stroke-width="0.25"></path></svg>